<svg width="100" height="100" viewBox="0 0 315 512" version="1.1" xmlns="http://www.w3.org/2000/svg" xmlns:xlink="http://www.w3.org/1999/xlink" xml:space="preserve" xmlns:serif="http://www.serif.com/" style="fill-rule:evenodd;clip-rule:evenodd;stroke-linejoin:round;stroke-miterlimit:1.41421;"><path d="M71.705,134.026c-28.925,-7.001 -50.435,-33.081 -50.435,-64.144c0,-36.423 29.571,-65.993 65.993,-65.993c36.422,0 65.993,29.57 65.993,65.993c0,31.941 -22.743,58.613 -52.904,64.692l0,36.834c21.449,3.295 40.296,14.529 53.443,30.602l30.769,-20.759c-1.805,-6.011 -2.774,-12.382 -2.774,-18.977c0,-36.423 29.57,-65.993 65.992,-65.993c36.423,0 65.993,29.57 65.993,65.993c0,36.422 -29.57,65.992 -65.993,65.992c-19.508,0 -37.05,-8.483 -49.136,-21.958l-30.625,20.662c3.347,9.18 5.174,19.089 5.174,29.421c0,10.649 -1.94,20.849 -5.486,30.264l31.028,21.21c12.106,-14.091 30.054,-23.023 50.071,-23.023c36.422,0 65.993,29.571 65.993,65.993c0,36.422 -29.571,65.993 -65.993,65.993c-36.422,0 -65.993,-29.571 -65.993,-65.993c0,-6.072 0.822,-11.953 2.361,-17.539l-31.947,-21.839c-12.811,15.339 -30.863,26.153 -51.393,29.676l0,38.882c29.293,6.735 51.166,32.992 51.166,64.317c0,36.423 -29.571,65.993 -65.993,65.993c-36.422,0 -65.993,-29.57 -65.993,-65.993c0,-31.683 22.376,-58.181 52.173,-64.541l0,-38.557c-40.795,-6.703 -71.96,-42.162 -71.96,-84.843c0,-42.161 30.411,-77.276 70.476,-84.585l0,-37.78Zm15.304,277.31c18.211,0 32.996,14.785 32.996,32.996c0,18.211 -14.785,32.996 -32.996,32.996c-18.211,0 -32.996,-14.785 -32.996,-32.996c0,-18.211 14.785,-32.996 32.996,-32.996Zm161.799,-93.497c18.211,0 32.996,14.785 32.996,32.996c0,18.211 -14.785,32.996 -32.996,32.996c-18.211,0 -32.996,-14.785 -32.996,-32.996c0,-18.211 14.785,-32.996 32.996,-32.996Zm-161.596,-104.439c23.727,0 42.991,19.264 42.991,42.991c0,23.728 -19.264,42.992 -42.991,42.992c-23.728,0 -42.992,-19.264 -42.992,-42.992c0,-23.727 19.264,-42.991 42.992,-42.991Zm160.57,-84.123c18.212,0 32.997,14.786 32.997,32.997c0,18.211 -14.785,32.996 -32.997,32.996c-18.211,0 -32.996,-14.785 -32.996,-32.996c0,-18.211 14.785,-32.997 32.996,-32.997Zm-160.519,-92.392c18.211,0 32.996,14.785 32.996,32.997c0,18.211 -14.785,32.996 -32.996,32.996c-18.211,0 -32.996,-14.785 -32.996,-32.996c0,-18.212 14.785,-32.997 32.996,-32.997Z" style="fill:#fff;" vector-effect="non-scaling-stroke"/></svg>