<svg version="1.2" xmlns="http://www.w3.org/2000/svg" xmlns:xlink="http://www.w3.org/1999/xlink" overflow="visible" preserveAspectRatio="xMidYMid meet" viewBox="0 0 38 38" height="36" width="36"><g transform="translate(1, 1)"><polygon class="clr-i-outline_1572369116849 clr-i-outline-path-1_1572369116849" points="28 22 30 22 30 30 22 30 22 28 20 28 20 32 32 32 32 20 28 20 28 22" vector-effect="non-scaling-stroke" style="fill: rgb(255, 255, 255);"/><polygon class="clr-i-outline_1572369116849 clr-i-outline-path-2_1572369116849" points="14 30 6 30 6 22 8 22 8 20 4 20 4 32 16 32 16 28 14 28 14 30" vector-effect="non-scaling-stroke" style="fill: rgb(255, 255, 255);"/><polygon class="clr-i-outline_1572369116849 clr-i-outline-path-3_1572369116849" points="8 14 6 14 6 6 14 6 14 8 16 8 16 4 4 4 4 16 8 16 8 14" vector-effect="non-scaling-stroke" style="fill: rgb(255, 255, 255);"/><polygon class="clr-i-outline_1572369116849 clr-i-outline-path-4_1572369116849" points="20 4 20 8 22 8 22 6 30 6 30 14 28 14 28 16 32 16 32 4 20 4" vector-effect="non-scaling-stroke" style="fill: rgb(255, 255, 255);"/><rect class="clr-i-outline_1572369116849 clr-i-outline-path-5_1572369116849" height="6" width="6" y="11" x="11" vector-effect="non-scaling-stroke" style="fill: rgb(255, 255, 255);"/><rect class="clr-i-outline_1572369116849 clr-i-outline-path-6_1572369116849" height="6" width="6" y="11" x="19" vector-effect="non-scaling-stroke" style="fill: rgb(255, 255, 255);"/><rect class="clr-i-outline_1572369116849 clr-i-outline-path-7_1572369116849" height="6" width="6" y="19" x="11" vector-effect="non-scaling-stroke" style="fill: rgb(255, 255, 255);"/><rect class="clr-i-outline_1572369116849 clr-i-outline-path-8_1572369116849" height="6" width="6" y="19" x="19" vector-effect="non-scaling-stroke" style="fill: rgb(255, 255, 255);"/><rect fill-opacity="0" height="36" width="36" y="0" x="0" vector-effect="non-scaling-stroke" style="fill: rgb(255, 255, 255);"/></g></svg>