<svg version="1.2" xmlns="http://www.w3.org/2000/svg" xmlns:xlink="http://www.w3.org/1999/xlink" overflow="visible" preserveAspectRatio="xMidYMid meet" viewBox="0 0 38 38" height="20" width="20"><g transform="translate(1, 1)"><rect class="clr-i-outline_1572303875336 clr-i-outline-path-1_1572303875336" height="2" width="2" y="7" x="5" vector-effect="non-scaling-stroke" style="fill: rgb(255, 255, 255);"/><rect class="clr-i-outline_1572303875336 clr-i-outline-path-2_1572303875336" height="2" width="2" y="7" x="9" vector-effect="non-scaling-stroke" style="fill: rgb(255, 255, 255);"/><rect class="clr-i-outline_1572303875336 clr-i-outline-path-3_1572303875336" height="2" width="2" y="7" x="13" vector-effect="non-scaling-stroke" style="fill: rgb(255, 255, 255);"/><path class="clr-i-outline_1572303875336 clr-i-outline-path-4_1572303875336" d="M32,4H4A2,2,0,0,0,2,6V30a2,2,0,0,0,2,2H32a2,2,0,0,0,2-2V6A2,2,0,0,0,32,4ZM4,6H32v4.2H4ZM4,30V11.8H32V30Z" vector-effect="non-scaling-stroke" style="fill: rgb(255, 255, 255);"/><rect fill-opacity="0" height="36" width="36" y="0" x="0" vector-effect="non-scaling-stroke" style="fill: rgb(255, 255, 255);"/></g></svg>