<svg version="1.2" xmlns="http://www.w3.org/2000/svg" xmlns:xlink="http://www.w3.org/1999/xlink" overflow="visible" preserveAspectRatio="xMidYMid meet" viewBox="0 0 36 36" height="14" width="14"><g transform="translate(0, 0)"><path class="clr-i-outline_1572303875333 clr-i-outline-path-1_1572303875333" d="M23.08,23.07h-11v1.5H23.83a.75.75,0,0,0,.75-.75V11.33h-1.5Z" style="fill: rgb(104, 113, 115); stroke-width: 0px;" vector-effect="non-scaling-stroke"/><path class="clr-i-outline_1572303875333 clr-i-outline-path-2_1572303875333" d="M32.2,18.15a.8.8,0,1,0,0-1.6H30v-5.4h2.2a.8.8,0,1,0,0-1.6H30V8.1A2.1,2.1,0,0,0,27.9,6H26.35V3.8a.8.8,0,1,0-1.6,0V6h-5.4V3.8a.8.8,0,1,0-1.6,0V6h-5.4V3.8a.8.8,0,1,0-1.6,0V6H8.1A2.1,2.1,0,0,0,6,8.1V9.55H3.8a.8.8,0,1,0,0,1.6H6v5.4H3.8a.8.8,0,1,0,0,1.6H6v5.4H3.8a.8.8,0,1,0,0,1.6H6V27.9A2.1,2.1,0,0,0,8.1,30h2.65v2.2a.8.8,0,1,0,1.6,0V30h5.4v2.2a.8.8,0,1,0,1.6,0V30h5.4v2.2a.8.8,0,1,0,1.6,0V30H27.9A2.1,2.1,0,0,0,30,27.9V25.15h2.2a.8.8,0,1,0,0-1.6H30v-5.4ZM28,27.9a.1.1,0,0,1-.1.1H8.1a.1.1,0,0,1-.1-.1V8.1A.1.1,0,0,1,8.1,8H27.9a.1.1,0,0,1,.1.1Z" style="fill: rgb(104, 113, 115); stroke-width: 0px;" vector-effect="non-scaling-stroke"/><rect fill-opacity="0" height="36" width="36" y="0" x="0" style="fill: rgb(104, 113, 115); stroke-width: 0px;" vector-effect="non-scaling-stroke"/></g></svg>