<svg version="1.2" xmlns="http://www.w3.org/2000/svg" xmlns:xlink="http://www.w3.org/1999/xlink" overflow="visible" preserveAspectRatio="xMidYMid meet" viewBox="0 0 36 36" height="14" width="14"><g transform="translate(0, 0)"><rect class="clr-i-outline_1572303875333 clr-i-outline-path-1_1572303875333" height="8" width="4" y="12" x="8" style="fill: rgb(104, 113, 115); stroke-width: 0px;" vector-effect="non-scaling-stroke"/><rect class="clr-i-outline_1572303875333 clr-i-outline-path-2_1572303875333" height="8" width="4" y="12" x="16" style="fill: rgb(104, 113, 115); stroke-width: 0px;" vector-effect="non-scaling-stroke"/><rect class="clr-i-outline_1572303875333 clr-i-outline-path-3_1572303875333" height="8" width="4" y="12" x="24" style="fill: rgb(104, 113, 115); stroke-width: 0px;" vector-effect="non-scaling-stroke"/><path class="clr-i-outline_1572303875333 clr-i-outline-path-4_1572303875333" d="M15,27H4V17H2V27a2,2,0,0,0,2,2H16.61V25.55h2.26V24H15Z" style="fill: rgb(104, 113, 115); stroke-width: 0px;" vector-effect="non-scaling-stroke"/><path class="clr-i-outline_1572303875333 clr-i-outline-path-5_1572303875333" d="M32,7H4A2,2,0,0,0,2,9v4H4V9H32v4h2V9A2,2,0,0,0,32,7Z" style="fill: rgb(104, 113, 115); stroke-width: 0px;" vector-effect="non-scaling-stroke"/><path class="clr-i-outline_1572303875333 clr-i-outline-path-6_1572303875333" d="M32,27H19v2H32a2,2,0,0,0,2-2V17H32Z" style="fill: rgb(104, 113, 115); stroke-width: 0px;" vector-effect="non-scaling-stroke"/><rect fill-opacity="0" height="36" width="36" y="0" x="0" style="fill: rgb(104, 113, 115); stroke-width: 0px;" vector-effect="non-scaling-stroke"/></g></svg>