<svg version="1.2" xmlns="http://www.w3.org/2000/svg" xmlns:xlink="http://www.w3.org/1999/xlink" overflow="visible" preserveAspectRatio="none" viewBox="0 0 291.89965397923856 82.43724894852198" width="291.89965397923856" height="82.43724894852198"><g transform="translate(1, 1)"><defs><path id="path-157383942207212" d="M710.8213875461191 357.3713774336492 C707.884109085186 360.4521651701462 678.5113244758411 372.7753161161338 670.6785819133498 370.4647253137611 C662.845839350858 368.1541345113886 637.3894260227594 358.91177130189766 628.5775906399568 365.8435437090159 C619.7657552571535 372.7753161161338 597.2466203899908 377.3964977208792 574.7274855228267 365.8435437090159 C552.2083506556623 354.29058969715214 577.6647639837619 332.7250755416732 548.2919793744171 302.68739511082754 C518.919194765074 272.649714679982 502.2746168197785 317.32113685918847 492.48368861666404 326.56350006867945 C482.69276041354937 335.80586327816997 475.8391106713694 337.3462571464185 453.3199758042055 326.56350006867945 C430.8008409370423 315.7807429909399 431.46674568129123 365.07334677489166 420.92173356688073 365.84354370901593" vector-effect="non-scaling-stroke"/></defs><g transform="translate(-420.92173356688073, -292.4432093090766)"><path d="M710.8213875461191 357.3713774336492 C707.884109085186 360.4521651701462 678.5113244758411 372.7753161161338 670.6785819133498 370.4647253137611 C662.845839350858 368.1541345113886 637.3894260227594 358.91177130189766 628.5775906399568 365.8435437090159 C619.7657552571535 372.7753161161338 597.2466203899908 377.3964977208792 574.7274855228267 365.8435437090159 C552.2083506556623 354.29058969715214 577.6647639837619 332.7250755416732 548.2919793744171 302.68739511082754 C518.919194765074 272.649714679982 502.2746168197785 317.32113685918847 492.48368861666404 326.56350006867945 C482.69276041354937 335.80586327816997 475.8391106713694 337.3462571464185 453.3199758042055 326.56350006867945 C430.8008409370423 315.7807429909399 431.46674568129123 365.07334677489166 420.92173356688073 365.84354370901593" style="stroke-width: 1; stroke: rgb(100, 4, 135); stroke-linecap: butt; stroke-linejoin: miter; fill: transparent;" vector-effect="non-scaling-stroke"/></g></g></svg>