<svg version="1.2" xmlns="http://www.w3.org/2000/svg" xmlns:xlink="http://www.w3.org/1999/xlink" overflow="visible" preserveAspectRatio="none" viewBox="0 0 36 36" xml:space="preserve" y="0px" x="0px" id="Layer_1_1572303875334" width="14" height="14"><g transform="translate(0, 0)"><g>
	<path d="M10.9,23.6h20.1c2.3,0,4.1-1.8,4.1-4.1v-8.3c0,0,0,0,0,0c0,0,0,0,0-0.1c0,0,0,0,0,0c0,0,0,0,0-0.1s0,0,0,0c0,0,0,0,0-0.1   c0,0,0,0,0,0c0,0,0,0,0,0c0,0,0,0,0-0.1c0,0,0,0,0,0c0,0,0,0,0,0c0,0,0,0,0,0c0,0,0,0,0,0c0,0,0,0,0,0c0,0,0,0,0,0c0,0,0,0,0,0   c0,0,0,0,0,0c0,0,0,0,0,0c0,0,0,0,0,0c0,0,0,0,0,0s0,0,0,0c0,0,0,0,0,0c0,0,0,0,0,0c0,0,0,0,0,0c0,0,0,0,0,0c0,0,0,0,0,0   c0,0,0,0-0.1,0s0,0,0,0c0,0,0,0-0.1,0c0,0,0,0,0,0L8.7,6.8V3.3c0,0,0-0.1,0-0.1c0,0,0,0,0,0c0,0,0,0,0-0.1c0,0,0,0,0-0.1   c0,0,0,0,0,0c0,0,0,0,0-0.1c0,0,0,0,0,0c0,0,0,0,0-0.1c0,0,0,0,0,0c0,0,0,0,0,0c0,0,0,0,0,0c0,0,0,0,0,0c0,0,0,0,0,0c0,0,0,0,0,0   c0,0,0,0,0,0c0,0,0,0,0,0c0,0,0,0-0.1,0c0,0,0,0,0,0c0,0,0,0,0,0c0,0,0,0-0.1,0c0,0,0,0,0,0c0,0-0.1,0-0.1,0L2.6,0.1   c-0.5-0.2-1.1,0-1.3,0.5s0,1.1,0.5,1.3l4.9,2v4.5v0.7v5.5v4.9v6.2c0,2.1,1.6,3.8,3.6,4C10,30.3,9.7,31,9.7,31.8c0,2.2,1.8,4,4.1,4   s4.1-1.8,4.1-4c0-0.7-0.2-1.4-0.6-2h9.1c-0.4,0.6-0.6,1.3-0.6,2c0,2.2,1.8,4,4.1,4s4.1-1.8,4.1-4s-1.8-4-4.1-4H10.9   c-1.2,0-2.1-0.9-2.1-2.1V23C9.4,23.4,10.1,23.6,10.9,23.6z M15.9,31.8c0,1.1-0.9,2-2.1,2s-2.1-0.9-2.1-2s0.9-2,2.1-2   S15.9,30.7,15.9,31.8z M32,31.8c0,1.1-0.9,2-2.1,2c-1.1,0-2.1-0.9-2.1-2s0.9-2,2.1-2C31.1,29.8,32,30.7,32,31.8z M30.9,21.6H10.9   c-1.2,0-2.1-0.9-2.1-2.1v-4.9V9.1V8.8L33,12.1v7.4C33,20.7,32.1,21.6,30.9,21.6z" style="fill: rgb(104, 113, 115); stroke-width: 0px;" vector-effect="non-scaling-stroke"/>
</g></g></svg>